<mxfile host="app.diagrams.net" modified="2024-04-23T11:20:12.415Z" agent="Mozilla/5.0 (Windows NT 10.0; Win64; x64) AppleWebKit/537.36 (KHTML, like Gecko) Chrome/124.0.0.0 Safari/537.36" version="24.2.8" etag="6oNkx30i2vSyA95Etsyz" type="github">
  <diagram name="PÃ¡gina-1" id="SV-szv5bWMZkq1CgvkAC">
    <mxGraphModel>
      <root>
        <mxCell id="0" />
        <mxCell id="1" parent="0" />
      </root>
    </mxGraphModel>
  </diagram>
</mxfile>
